<?xml version="1.0" encoding="utf-8"?>
<!-- Generator: Adobe Illustrator 24.0.3, SVG Export Plug-In . SVG Version: 6.00 Build 0)  -->
<svg version="1.1" id="Layer_1" xmlns="http://www.w3.org/2000/svg" xmlns:xlink="http://www.w3.org/1999/xlink" x="0px" y="0px"
	 viewBox="0 0 330.22 72.86" style="enable-background:new 0 0 330.22 72.86;" xml:space="preserve">
<style type="text/css">
	.st0{fill:#15242F;}
	.st1{fill:#FFFFFF;}
	.st2{fill:#CA3D32;}
</style>
<g>
	<g>
		<g>
			<g>
				<path class="st0" d="M85.17,21.46c-1.28,0-2.31,0.74-2.31,2.06c0,1.17,0.12,1.98,1.98,3.05c2.27,1.32,4.25,1.75,4.25,4.43
					c0,2.58-2.31,3.92-4.88,3.92c-0.91,0-1.83-0.17-3.07-0.64c0,0-0.06-0.08-0.06-0.16c-0.02-0.08-0.35-2.22-0.35-2.39
					c0-0.1,0.02-0.1,0.08-0.12l0.74-0.21c0.06-0.02,0.1,0,0.12,0.06c0.21,0.66,0.23,0.97,0.58,1.57c0,0,0.6,1.09,2.6,1.09
					c1.52,0,2.49-1.01,2.49-2.49c0-0.41-0.21-1.59-2.82-2.97c-2.24-1.2-3.38-2.54-3.38-4c0-2.52,1.89-3.9,4.33-3.9
					c0.95,0,1.85,0.16,1.82,0.16l0.89,0.14l0.35,0.37c0,0,0.08,0.08,0.06,0.25l-0.11,2.18c0,0.06-0.04,0.08-0.08,0.08
					c-0.21,0.02-0.76,0-0.74,0c-0.06,0-0.08-0.02-0.08-0.08c-0.02-0.68-0.31-1.48-0.49-1.71C87.11,22.14,86.68,21.46,85.17,21.46"/>
				<path class="st0" d="M98.13,33.82h0.91c0.19,0,0.19,0.43,0.19,0.78c-0.72-0.04-2.04-0.06-2.99-0.06c-0.91,0-2.12,0.04-2.86,0.06
					c0-0.37,0-0.78,0.19-0.78h0.99c0.37,0,0.84-0.37,0.84-1.09c0-0.88,0.04-1.75,0.04-2.99c0-0.39-0.02-0.78-0.19-1.13l-0.27-0.52
					c-0.95-1.88-2.31-4.57-3.19-5.75c-0.19-0.29-0.45-0.52-0.87-0.52h-0.93c-0.19,0-0.19-0.41-0.19-0.78
					c0.74,0.02,1.81,0.06,2.72,0.06c0.93,0,1.86-0.02,2.58-0.06c0,0.35,0,0.78-0.19,0.78h-0.76c-0.16,0-0.21,0.08-0.21,0.17
					s0.04,0.21,0.1,0.35c0,0,1.18,2.64,2.82,5.5c1.01-1.57,2.66-4.7,2.93-5.5c0.19-0.41-0.16-0.52-0.54-0.52H98.3
					c-0.19,0-0.19-0.41-0.19-0.78c0.74,0.02,1.55,0.06,2.47,0.06c0.93,0,1.77-0.02,2.49-0.06c0,0.35,0,0.78-0.19,0.78h-0.76
					c-0.45,0-0.72,0.25-0.95,0.52c-1.01,1.2-2.72,4.49-3.79,6.29c-0.06,0.16-0.08,0.6-0.08,1.63c0,0.95,0.02,2.02,0.06,2.47
					C97.41,33.45,97.7,33.82,98.13,33.82"/>
				<path class="st0" d="M107.18,21.46c-1.28,0-2.31,0.74-2.31,2.06c0,1.17,0.12,1.98,1.98,3.05c2.27,1.32,4.26,1.75,4.26,4.43
					c0,2.58-2.31,3.92-4.88,3.92c-0.91,0-1.83-0.17-3.07-0.64c0,0-0.06-0.08-0.06-0.16c-0.02-0.08-0.35-2.22-0.35-2.39
					c0-0.1,0.02-0.1,0.08-0.12l0.74-0.21c0.06-0.02,0.1,0,0.12,0.06c0.21,0.66,0.23,0.97,0.58,1.57c0,0,0.6,1.09,2.6,1.09
					c1.51,0,2.49-1.01,2.49-2.49c0-0.41-0.21-1.59-2.82-2.97c-2.23-1.2-3.38-2.54-3.38-4c0-2.52,1.88-3.9,4.33-3.9
					c0.95,0,1.85,0.16,1.83,0.16l0.9,0.14l0.35,0.37c0,0,0.08,0.08,0.06,0.25l-0.12,2.18c0,0.06-0.04,0.08-0.08,0.08
					c-0.21,0.02-0.76,0-0.74,0c-0.06,0-0.08-0.02-0.08-0.08c-0.02-0.68-0.31-1.48-0.49-1.71C109.13,22.14,108.7,21.46,107.18,21.46"
					/>
				<path class="st0" d="M119.75,22.26v9.19c0,0.85,0.08,1.85,0.08,1.85c0,0.39,0.54,0.52,0.82,0.52h1.07
					c0.19,0,0.19,0.43,0.19,0.78c-0.72-0.04-2.16-0.06-3.09-0.06c-0.91,0-2.39,0.04-3.13,0.06c0-0.37,0-0.78,0.19-0.78h1.19
					c0.27,0,0.82-0.14,0.82-0.52c0,0,0.06-0.95,0.06-1.85v-9.27c-0.02-0.08-0.06-0.14-0.16-0.16h-2.6c-0.83,0-1.42,0.66-1.65,1.9
					c-0.02,0.06-0.02,0.08-0.08,0.08l-0.68-0.02c-0.08,0-0.1-0.02-0.1-0.08l0.16-2.23c0-0.16,0.06-0.19,0.06-0.19l0.35-0.41
					l2.08,0.02h7.11l2.08-0.02l0.45,0.43c0,0,0.06,0.04,0.06,0.19l-0.12,2.23c0,0.06-0.02,0.08-0.1,0.08h-0.62
					c-0.06,0-0.06-0.02-0.08-0.08c-0.27-1.26-0.58-1.9-1.54-1.9h-2.66C119.77,22.04,119.75,22.14,119.75,22.26"/>
				<path class="st0" d="M128.54,34.54c-0.88,0-1.79,0.04-2.53,0.06c0-0.37,0-0.82,0.2-0.82h0.93c0.72,0,1.07-0.27,1.07-0.54
					c0,0,0.04-0.51,0.04-1.13c0-0.21-0.02-0.43-0.02-0.66v-9.11c0-0.29-0.47-0.53-0.76-0.53h-0.91c-0.19,0-0.19-0.41-0.19-0.78
					c0.74,0.02,1.81,0.06,2.72,0.06h6.53l0.35,0.37c0,0,0.06,0.04,0.06,0.19l-0.1,2.04c0,0.06-0.02,0.08-0.1,0.08l-0.78,0.04
					c-0.06,0-0.08-0.02-0.08-0.08c-0.02-1.03-0.16-1.71-1.3-1.71h-3.05c-0.39,0-0.52,0.21-0.54,0.52v4.6
					c0.02,0.04,0.06,0.06,0.14,0.06h3.03c0.54,0,1.2-0.14,1.2-0.78l0.08-0.6c0.02-0.19,0.43-0.33,0.76-0.12
					c-0.12,0.74-0.16,1.01-0.16,1.92c0,0.93,0.02,1.4,0.04,2.12c-0.35,0.17-0.72,0.06-0.72-0.23v-0.51c0-0.6-0.66-0.88-1.2-0.88
					h-3.03c-0.08,0-0.12,0.04-0.14,0.08v4.86c0.06,0.29,0.25,0.54,0.62,0.54h3.52c0.56,0,1.01-0.08,1.57-1.19
					c0.15-0.31,0.19-0.56,0.29-1.01c0.02-0.06,0.08-0.08,0.14-0.06c0.19,0.04,0.39,0.12,0.68,0.21c0.08,0.04,0.1,0.04,0.1,0.14
					c0,0-0.31,1.9-0.47,2.58c-0.04,0.1-0.1,0.15-0.27,0.17c-0.64,0.06-1.21,0.06-1.69,0.06H128.54z"/>
				<path class="st0" d="M156.11,33.82h-0.93c-0.27,0-0.7-0.21-0.7-0.52c0,0-0.1-0.85-0.25-10.96c0-0.29,0.51-0.53,0.8-0.53h0.93
					c0.19,0,0.19-0.41,0.19-0.78c-0.74,0.02-1.71,0.06-2.62,0.06c-0.39,0-0.49-0.02-0.93-0.02l-0.39,0.83
					c0.02-0.02-4.47,9.71-4.47,9.71l-4.45-9.67l-0.33-0.83c-0.43,0-0.78,0.02-1.17,0.02c-0.91,0-1.98-0.04-2.72-0.06
					c0,0.37,0,0.78,0.19,0.78h0.93c0.27,0,0.95,0.14,0.95,0.53c-0.02,0-0.1,9.44-0.47,10.59c-0.17,0.62-0.5,0.85-0.93,0.85h-0.93
					c-0.2,0-0.2,0.41-0.2,0.78c0.74-0.02,1.81-0.06,2.72-0.06c0.93,0,2.18,0.02,2.89,0.06c0-0.35,0-0.78-0.19-0.78h-0.91
					c-0.37,0-1.13-0.21-1.13-0.85c-0.06-0.35-0.08-1.44-0.08-2.8c0-2.29,0.06-5.34,0.1-6.84l5.17,11.15c0,0,0.02,0.06,0.08,0.06
					h0.18c0.1,0,0.12-0.06,0.12-0.06l4.9-10.57c0.08,4.27,0.1,6.63,0.1,7.91c0,1.28-0.02,1.48-0.02,1.48c0,0.31-0.45,0.52-0.72,0.52
					h-0.93c-0.19,0-0.19,0.41-0.19,0.78c0.74-0.02,1.81-0.06,2.72-0.06c0.93,0,2.18,0.02,2.9,0.06
					C156.3,34.24,156.3,33.82,156.11,33.82z"/>
				<path class="st0" d="M84.37,45.17c0,0.08,0.04,0.1,0.14,0.1h1.63c0.41,0,2.87,0.02,2.87-3.17c0-2.06-1.24-3.4-3.5-3.4
					c-0.95,0-1.13,0.21-1.15,0.47V45.17z M86.82,37.96c3.28,0,4.21,2.2,4.21,3.81c0,0.76-0.23,2.45-1.83,3.52
					c-1.03,0.7-2.14,0.87-2.84,0.87h-1.85c0,0-0.15,0-0.15,0.17v2.02c0,0.85,0.08,1.85,0.08,1.85c0,0.29,0.43,0.53,0.72,0.53h0.91
					c0.19,0,0.19,0.43,0.19,0.78c-0.72-0.04-1.96-0.06-2.89-0.06c-0.91,0-1.98,0.04-2.72,0.06c0-0.37,0-0.78,0.19-0.78h0.93
					c0.29,0,0.72-0.23,0.72-0.53c0,0,0.06-0.95,0.06-1.85v-9.11c0-0.35-0.45-0.52-0.78-0.52h-0.93c-0.19,0-0.19-0.41-0.19-0.78
					C81.4,37.96,82.47,38,83.38,38h1.01C85.09,37.98,86.76,37.96,86.82,37.96"/>
				<path class="st0" d="M95.35,45.11c0.02,0.02,0.04,0.02,0.08,0.02h3.3c0.06,0,0.08-0.02,0.1-0.04l-1.69-4.86L95.35,45.11z
					 M104.36,51.5c-0.72-0.04-1.79-0.06-2.72-0.06c-0.91,0-1.98,0.04-2.72,0.06c0-0.37,0-0.78,0.19-0.78h0.78
					c0.27,0,0.89-0.08,0.72-0.53c0,0-0.66-1.9-1.42-4.12c-0.04-0.02-0.06-0.02-0.1-0.02h-4.04c-0.04,0-0.06,0-0.08,0.02l-1.5,4.1
					c-0.12,0.31,0.17,0.52,0.74,0.52h0.91c0.21,0,0.21,0.43,0.21,0.78c-0.72-0.04-1.32-0.06-2.25-0.06c-0.91,0-1.98,0.04-2.72,0.06
					c0-0.37,0-0.78,0.19-0.78h0.93c0.25,0,0.72-0.17,0.86-0.52c0,0,4.04-10.53,4.62-12.2L97.14,38c0.14,0.02,0.27,0,0.43,0
					c0.21,0,0.35,0,0.52-0.02c0.49,1.69,4.37,12.06,4.49,12.22c0.15,0.29,0.47,0.53,0.8,0.53h0.8
					C104.36,50.72,104.36,51.15,104.36,51.5"/>
				<path class="st0" d="M101.9,38.66c-0.21,0-0.21-0.33-0.21-0.7c0.76,0.02,2.35,0.04,3.26,0.04c0.95,0,1.67,0,2.39-0.04
					c0,0.35,0,0.7-0.21,0.7h-1.2c-0.15,0-0.33,0.06-0.33,0.19c0,0.04,2.86,7.95,3.75,10.39c3.96-10.12,3.98-10.2,3.98-10.26
					c0-0.21-0.23-0.31-0.64-0.31h-1.3c-0.19,0-0.19-0.33-0.19-0.7c0.74,0.02,2.57,0.04,3.19,0.04c0.72,0,1.07,0,1.79-0.04
					c0,0.35,0,0.7-0.19,0.7h-0.78c-0.35,0-0.64,0.1-0.78,0.52c0,0-4.45,10.74-5.01,12.41c-0.17-0.02-0.41-0.04-0.62-0.04
					c-0.21,0-0.39,0.02-0.56,0.04c-0.5-1.69-4.47-12.55-4.6-12.71c-0.14-0.23-0.37-0.25-0.7-0.25H101.9z"/>
				<path class="st0" d="M118.94,51.44c-0.87,0-1.79,0.04-2.52,0.06c0-0.37,0-0.82,0.19-0.82h0.93c0.72,0,1.07-0.27,1.07-0.54
					c0,0,0.04-0.51,0.04-1.13c0-0.21-0.02-0.43-0.02-0.66v-9.11c0-0.29-0.46-0.53-0.76-0.53h-0.91c-0.2,0-0.2-0.41-0.2-0.78
					c0.74,0.02,1.81,0.06,2.72,0.06h6.53l0.35,0.37c0,0,0.06,0.04,0.06,0.19l-0.1,2.04c0,0.06-0.02,0.08-0.1,0.08l-0.78,0.04
					c-0.06,0-0.08-0.02-0.08-0.08c-0.02-1.03-0.16-1.71-1.3-1.71h-3.05c-0.39,0-0.53,0.21-0.54,0.53v4.6
					c0.02,0.04,0.06,0.06,0.14,0.06h3.03c0.54,0,1.21-0.14,1.21-0.78l0.08-0.6c0.02-0.19,0.43-0.33,0.76-0.12
					c-0.12,0.74-0.15,1.01-0.15,1.92c0,0.93,0.02,1.4,0.04,2.12c-0.35,0.18-0.72,0.06-0.72-0.23v-0.51c0-0.6-0.66-0.87-1.21-0.87
					h-3.03c-0.08,0-0.12,0.04-0.14,0.08v4.86c0.06,0.29,0.25,0.55,0.62,0.55h3.52c0.56,0,1.01-0.08,1.57-1.19
					c0.15-0.31,0.19-0.56,0.29-1.01c0.02-0.06,0.08-0.08,0.14-0.06c0.19,0.04,0.39,0.12,0.68,0.21c0.08,0.04,0.1,0.04,0.1,0.14
					c0,0-0.31,1.91-0.47,2.58c-0.04,0.1-0.1,0.16-0.27,0.17c-0.64,0.06-1.21,0.06-1.69,0.06H118.94z"/>
				<path class="st0" d="M136.31,41.8c0-1.86-0.83-3.11-3.17-3.11c-0.97,0-1.13,0.23-1.15,0.49v5.42c0,0.04,0.04,0.11,0.16,0.11h1.9
					C134.83,44.72,136.31,44.14,136.31,41.8 M134.44,37.96c2.72,0,3.83,1.81,3.83,3.28c0,0.78-0.14,2.29-1.9,3.36l-0.72,0.45
					c0.06,0.04,1.63,2.33,3.81,5.3c0.21,0.29,0.66,0.37,1.01,0.37h0.58c0.19,0,0.27,0.41,0.27,0.76c-0.37-0.02-0.56-0.04-1.07-0.04
					c-0.24,0-1.54,0.04-1.88,0.04c-0.18,0-0.29-0.02-0.39-0.15c-0.37-0.43-0.52-0.64-0.68-0.84c0,0-2.08-3.23-2.93-4.45
					c-0.18-0.23-0.35-0.37-0.62-0.39h-1.59c-0.16,0-0.16,0.16-0.16,0.16v2.54c0,0.85,0.08,1.85,0.08,1.85
					c0,0.29,0.43,0.53,0.72,0.53h0.91c0.19,0,0.19,0.43,0.19,0.78c-0.72-0.04-1.96-0.06-2.89-0.06c-0.91,0-1.98,0.04-2.72,0.06
					c0-0.37,0-0.78,0.19-0.78h0.93c0.29,0,0.72-0.23,0.72-0.53c0,0,0.06-0.95,0.06-1.85v-9.11c0-0.29-0.49-0.52-0.78-0.52h-0.93
					c-0.19,0-0.19-0.41-0.19-0.78c0.74,0.02,1.81,0.06,2.72,0.06h1.01C132.71,37.98,134.39,37.96,134.44,37.96"/>
				<path class="st0" d="M146.43,38.37c-1.28,0-2.31,0.74-2.31,2.06c0,1.17,0.12,1.98,1.98,3.05c2.27,1.32,4.26,1.75,4.26,4.43
					c0,2.58-2.31,3.93-4.88,3.93c-0.91,0-1.83-0.18-3.07-0.64c0,0-0.06-0.08-0.06-0.16c-0.02-0.08-0.35-2.21-0.35-2.39
					c0-0.1,0.02-0.1,0.08-0.12l0.74-0.21c0.06-0.02,0.1,0,0.12,0.06c0.21,0.66,0.23,0.97,0.58,1.57c0,0,0.6,1.09,2.6,1.09
					c1.51,0,2.49-1.01,2.49-2.49c0-0.41-0.21-1.59-2.82-2.97c-2.24-1.2-3.38-2.55-3.38-4c0-2.53,1.88-3.91,4.33-3.91
					c0.95,0,1.85,0.16,1.83,0.16l0.9,0.14l0.35,0.37c0,0,0.08,0.08,0.06,0.25l-0.12,2.18c0,0.06-0.04,0.08-0.08,0.08
					c-0.21,0.02-0.76,0-0.74,0c-0.06,0-0.08-0.02-0.08-0.08c-0.02-0.68-0.31-1.48-0.49-1.71C148.38,39.05,147.95,38.37,146.43,38.37
					"/>
				<path class="st0" d="M153.94,39.44h-0.63v0.77h0.62c0.3,0,0.51-0.14,0.51-0.39C154.44,39.58,154.25,39.44,153.94,39.44
					 M154.21,40.44l0.67,0.87h-0.4l-0.62-0.82h-0.55v0.82h-0.32v-2.16h0.97c0.48,0,0.82,0.25,0.82,0.65
					C154.77,40.15,154.54,40.36,154.21,40.44 M153.82,38.36c-1.1,0-1.92,0.87-1.92,1.93c0,1.06,0.82,1.92,1.91,1.92
					c1.09,0,1.92-0.87,1.92-1.93C155.73,39.22,154.91,38.36,153.82,38.36 M153.81,42.4c-1.18,0-2.1-0.95-2.1-2.1
					c0-1.15,0.93-2.11,2.12-2.11c1.18,0,2.1,0.95,2.1,2.1C155.92,41.43,154.99,42.4,153.81,42.4"/>
				<path class="st0" d="M176.54,23.86c-2.34,0-4.01,1.87-4.01,4.22c0,2.34,1.7,4.25,4.04,4.25c2.34,0,4.01-1.87,4.01-4.22
					C180.58,25.76,178.88,23.86,176.54,23.86 M176.54,33.39c-3.12,0-5.21-2.44-5.21-5.28s2.12-5.31,5.24-5.31s5.21,2.44,5.21,5.28
					S179.66,33.39,176.54,33.39"/>
				<path class="st0" d="M189.26,25.65h1.11v7.57h-1.11V31.9c-0.51,0.82-1.29,1.48-2.59,1.48c-1.83,0-2.9-1.23-2.9-3.03v-4.7h1.13
					v4.42c0,1.41,0.76,2.28,2.09,2.28c1.29,0,2.27-0.95,2.27-2.37V25.65z"/>
				<path class="st0" d="M194.28,31.06c0,0.92,0.51,1.26,1.27,1.26c0.38,0,0.7-0.07,1.1-0.26v0.97c-0.39,0.21-0.82,0.32-1.36,0.32
					c-1.21,0-2.14-0.6-2.14-2.14v-4.57h-1.05v-1h1.05v-2.28h1.13v2.28h2.4v1h-2.4V31.06z"/>
				<path class="st0" d="M201.69,26.49c-1.46,0-2.66,1.08-2.66,2.93c0,1.8,1.23,2.94,2.66,2.94c1.41,0,2.74-1.17,2.74-2.94
					C204.42,27.67,203.09,26.49,201.69,26.49 M204.38,33.21v-1.52c-0.62,0.91-1.51,1.68-2.9,1.68c-1.82,0-3.62-1.44-3.62-3.94
					c0-2.49,1.8-3.95,3.62-3.95c1.41,0,2.31,0.76,2.9,1.61v-4.57h1.13v10.69H204.38z"/>
				<path class="st0" d="M211.33,26.48c-1.64,0-2.77,1.3-2.77,2.94c0,1.64,1.2,2.96,2.8,2.96c1.64,0,2.78-1.3,2.78-2.93
					C214.14,27.8,212.93,26.48,211.33,26.48 M211.33,33.39c-2.27,0-3.92-1.79-3.92-3.94s1.67-3.97,3.95-3.97
					c2.27,0,3.94,1.78,3.94,3.94C215.3,31.57,213.61,33.39,211.33,33.39"/>
				<path class="st0" d="M220.64,26.48c-1.64,0-2.77,1.3-2.77,2.94c0,1.64,1.2,2.96,2.8,2.96c1.64,0,2.78-1.3,2.78-2.93
					C223.45,27.8,222.24,26.48,220.64,26.48 M220.64,33.39c-2.27,0-3.92-1.79-3.92-3.94s1.67-3.97,3.95-3.97
					c2.27,0,3.94,1.78,3.94,3.94C224.61,31.57,222.92,33.39,220.64,33.39"/>
				<path class="st0" d="M227.62,33.21h-1.13v-7.57h1.13v1.98c0.56-1.26,1.65-2.17,3.09-2.11v1.22h-0.09c-1.65,0-3,1.19-3,3.47
					V33.21z"/>
			</g>
			<polygon class="st0" points="236.71,22.97 237.87,22.97 237.87,32.15 243.63,32.15 243.63,33.21 236.71,33.21 			"/>
			<path class="st0" d="M245.54,25.64h1.13v7.57h-1.13V25.64z M245.46,22.75h1.29v1.24h-1.29V22.75z"/>
			<polygon class="st0" points="254.74,25.65 255.96,25.65 252.66,33.27 251.67,33.27 248.39,25.65 249.63,25.65 252.18,31.93 			
				"/>
			<path class="st0" d="M257.68,25.64h1.13v7.57h-1.13V25.64z M257.61,22.75h1.29v1.24h-1.29V22.75z"/>
			<g>
				<path class="st0" d="M262.41,33.21h-1.13v-7.57h1.13v1.32c0.5-0.82,1.29-1.48,2.59-1.48c1.83,0,2.9,1.23,2.9,3.03v4.7h-1.13
					v-4.42c0-1.41-0.76-2.28-2.09-2.28c-1.3,0-2.27,0.95-2.27,2.37V33.21z"/>
				<path class="st0" d="M273.49,26.48c-1.43,0-2.62,0.98-2.62,2.56c0,1.55,1.21,2.59,2.62,2.59c1.43,0,2.78-1.02,2.78-2.58
					C276.27,27.49,274.93,26.48,273.49,26.48 M273.51,35.59c-1.26,0-2.43-0.35-3.44-1.05l0.51-0.88c0.86,0.63,1.83,0.97,2.91,0.97
					c1.67,0,2.75-0.92,2.75-2.69v-0.89c-0.66,0.88-1.58,1.6-2.97,1.6c-1.82,0-3.56-1.35-3.56-3.56c0-2.22,1.76-3.59,3.56-3.59
					c1.42,0,2.34,0.7,2.96,1.52v-1.36h1.13v6.25C277.36,34.34,275.83,35.59,273.51,35.59"/>
				<path class="st0" d="M175.34,40.63h-2.4v8.11h2.4c2.59,0,4.24-1.76,4.24-4.04C179.58,42.42,177.93,40.63,175.34,40.63
					 M175.34,49.81h-3.56V39.56h3.56c3.22,0,5.45,2.21,5.45,5.11C180.78,47.57,178.56,49.81,175.34,49.81"/>
				<path class="st0" d="M188.44,45.61c-0.12-1.38-0.91-2.58-2.42-2.58c-1.32,0-2.31,1.1-2.46,2.58H188.44z M186.23,49.01
					c1.04,0,1.77-0.42,2.39-1.07l0.7,0.63c-0.76,0.85-1.68,1.42-3.12,1.42c-2.08,0-3.78-1.6-3.78-3.95c0-2.2,1.54-3.95,3.63-3.95
					c2.24,0,3.53,1.79,3.53,4.01c0,0.1,0,0.22-0.01,0.35h-6C183.72,48.08,184.9,49.01,186.23,49.01"/>
				<path class="st0" d="M193.91,49.96c-1.08,0-2.28-0.42-3.13-1.11l0.57-0.81c0.82,0.62,1.73,0.97,2.62,0.97
					c0.91,0,1.57-0.47,1.57-1.2v-0.03c0-0.76-0.89-1.05-1.89-1.33c-1.18-0.34-2.5-0.75-2.5-2.14v-0.03c0-1.3,1.08-2.17,2.58-2.17
					c0.92,0,1.95,0.32,2.72,0.83l-0.51,0.85c-0.7-0.45-1.51-0.73-2.24-0.73c-0.89,0-1.46,0.47-1.46,1.1v0.03c0,0.72,0.94,1,1.95,1.3
					c1.17,0.35,2.43,0.81,2.43,2.17v0.03C196.61,49.12,195.42,49.96,193.91,49.96"/>
			</g>
			<path class="st0" d="M198.65,42.24h1.13v7.57h-1.13V42.24z M198.58,39.34h1.29v1.24h-1.29V39.34z"/>
			<g>
				<path class="st0" d="M205.59,43.08c-1.43,0-2.62,0.98-2.62,2.56c0,1.55,1.21,2.59,2.62,2.59c1.44,0,2.78-1.03,2.78-2.58
					C208.37,44.09,207.03,43.08,205.59,43.08 M205.61,52.18c-1.26,0-2.43-0.35-3.44-1.05l0.51-0.88c0.86,0.63,1.83,0.97,2.91,0.97
					c1.67,0,2.75-0.92,2.75-2.69v-0.89c-0.66,0.88-1.58,1.6-2.97,1.6c-1.82,0-3.56-1.35-3.56-3.56c0-2.22,1.76-3.59,3.56-3.59
					c1.42,0,2.34,0.7,2.96,1.52v-1.36h1.13v6.25C209.46,50.94,207.93,52.18,205.61,52.18"/>
				<path class="st0" d="M212.95,49.81h-1.13v-7.57h1.13v1.32c0.5-0.82,1.29-1.48,2.59-1.48c1.83,0,2.9,1.23,2.9,3.03v4.7h-1.13
					v-4.42c0-1.4-0.76-2.28-2.09-2.28c-1.3,0-2.27,0.95-2.27,2.37V49.81z"/>
				<path class="st0" d="M226.24,45.61c-0.12-1.38-0.91-2.58-2.42-2.58c-1.32,0-2.31,1.1-2.46,2.58H226.24z M224.03,49.01
					c1.04,0,1.77-0.42,2.39-1.07l0.7,0.63c-0.76,0.85-1.68,1.42-3.12,1.42c-2.08,0-3.78-1.6-3.78-3.95c0-2.2,1.54-3.95,3.63-3.95
					c2.24,0,3.53,1.79,3.53,4.01c0,0.1,0,0.22-0.01,0.35h-6C221.53,48.08,222.7,49.01,224.03,49.01"/>
				<path class="st0" d="M232.6,43.09c-1.46,0-2.66,1.08-2.66,2.93c0,1.8,1.23,2.94,2.66,2.94c1.41,0,2.74-1.17,2.74-2.94
					C235.33,44.26,234,43.09,232.6,43.09 M235.29,49.81v-1.52c-0.62,0.91-1.51,1.68-2.9,1.68c-1.82,0-3.62-1.43-3.62-3.94
					c0-2.49,1.8-3.95,3.62-3.95c1.41,0,2.31,0.76,2.9,1.61v-4.57h1.13v10.69H235.29z"/>
			</g>
			<path class="st0" d="M247.54,40.84l-2.34,5.23h4.67L247.54,40.84z M252.77,49.81h-1.24l-1.2-2.71h-5.58l-1.22,2.71h-1.19
				l4.67-10.32h1.08L252.77,49.81z"/>
			<g>
				<path class="st0" d="M255.57,49.81h-1.13v-7.57h1.13v1.98c0.56-1.26,1.65-2.17,3.09-2.11v1.22h-0.09c-1.65,0-3,1.19-3,3.47
					V49.81z"/>
				<path class="st0" d="M263.36,43.08c-1.64,0-2.77,1.3-2.77,2.94c0,1.64,1.2,2.96,2.8,2.96c1.64,0,2.78-1.3,2.78-2.93
					C266.17,44.39,264.96,43.08,263.36,43.08 M263.36,49.99c-2.27,0-3.92-1.79-3.92-3.94s1.67-3.97,3.95-3.97
					c2.27,0,3.94,1.79,3.94,3.94C267.33,48.17,265.65,49.99,263.36,49.99"/>
				<path class="st0" d="M274.59,42.24h1.11v7.57h-1.11v-1.32c-0.51,0.82-1.29,1.48-2.59,1.48c-1.83,0-2.9-1.23-2.9-3.03v-4.7h1.13
					v4.42c0,1.41,0.76,2.28,2.09,2.28c1.29,0,2.27-0.95,2.27-2.37V42.24z"/>
				<path class="st0" d="M279.21,49.81h-1.13v-7.57h1.13v1.32c0.5-0.82,1.29-1.48,2.59-1.48c1.83,0,2.9,1.23,2.9,3.03v4.7h-1.13
					v-4.42c0-1.4-0.76-2.28-2.09-2.28c-1.3,0-2.27,0.95-2.27,2.37V49.81z"/>
				<path class="st0" d="M290.34,43.09c-1.46,0-2.66,1.08-2.66,2.93c0,1.8,1.23,2.94,2.66,2.94c1.41,0,2.74-1.17,2.74-2.94
					C293.07,44.26,291.74,43.09,290.34,43.09 M293.03,49.81v-1.52c-0.62,0.91-1.51,1.68-2.9,1.68c-1.82,0-3.62-1.43-3.62-3.94
					c0-2.49,1.8-3.95,3.62-3.95c1.41,0,2.31,0.76,2.9,1.61v-4.57h1.13v10.69H293.03z"/>
			</g>
			<polygon class="st0" points="305.34,49.81 304.17,49.81 304.17,45.76 299.91,39.56 301.31,39.56 304.77,44.69 308.25,39.56 
				309.6,39.56 305.34,45.74 			"/>
			<g>
				<path class="st0" d="M312.95,43.08c-1.64,0-2.77,1.3-2.77,2.94c0,1.64,1.2,2.96,2.8,2.96c1.64,0,2.78-1.3,2.78-2.93
					C315.76,44.39,314.54,43.08,312.95,43.08 M312.95,49.99c-2.27,0-3.92-1.79-3.92-3.94s1.67-3.97,3.95-3.97
					c2.27,0,3.94,1.79,3.94,3.94C316.92,48.17,315.23,49.99,312.95,49.99"/>
				<path class="st0" d="M324.17,42.24h1.11v7.57h-1.11v-1.32c-0.51,0.82-1.29,1.48-2.59,1.48c-1.83,0-2.9-1.23-2.9-3.03v-4.7h1.13
					v4.42c0,1.41,0.76,2.28,2.09,2.28c1.29,0,2.27-0.95,2.27-2.37V42.24z"/>
			</g>
			<g>
				<rect x="163.55" y="21.12" class="st0" width="0.5" height="31.09"/>
			</g>
			<g>
				<path class="st0" d="M328.29,41.04c0.27,0,0.42-0.14,0.42-0.34c0-0.22-0.15-0.34-0.42-0.34h-0.5v0.68H328.29z M327.39,40.01
					h0.93c0.46,0,0.8,0.22,0.8,0.65c0,0.34-0.2,0.55-0.48,0.63l0.55,0.78h-0.48l-0.49-0.71h-0.43v0.71h-0.4V40.01z M329.99,41.09
					v-0.01c0-0.99-0.77-1.81-1.8-1.81c-1.02,0-1.8,0.83-1.8,1.82v0.01c0,0.99,0.77,1.81,1.8,1.81
					C329.2,42.91,329.99,42.08,329.99,41.09 M326.15,41.1v-0.01c0-1.11,0.9-2.04,2.03-2.04c1.15,0,2.03,0.92,2.03,2.03v0.01
					c0,1.11-0.9,2.04-2.03,2.04C327.04,43.13,326.15,42.21,326.15,41.1"/>
			</g>
		</g>
	</g>
	<path class="st1" d="M37.65,49.33h3.64c1.38,0,3.56-0.34,5.59-1.72c3.14-2.11,3.6-5.44,3.6-6.93c0-2.62-1.25-6.02-5.31-7.13
		c0,0,0,0.01,0,0.01c-0.05,0.47-0.14,0.93-0.26,1.37c-0.05,0.17-0.1,0.34-0.16,0.5c-0.02,0.05-0.03,0.1-0.05,0.15
		c-0.08,0.21-0.17,0.42-0.26,0.63c1.34,1.17,2.06,2.94,2.06,5.12c0,0.2-0.01,0.39-0.01,0.57c0,0.06-0.01,0.12-0.01,0.18
		c0,0.02,0,0.05-0.01,0.07c-0.01,0.1-0.01,0.19-0.02,0.29c-0.01,0.07-0.02,0.13-0.03,0.2c-0.01,0.08-0.02,0.16-0.03,0.23
		c0,0.02-0.01,0.04-0.01,0.06c-0.01,0.07-0.02,0.13-0.04,0.2c-0.01,0.05-0.02,0.1-0.03,0.15c-0.01,0.04-0.01,0.08-0.02,0.11
		c-0.01,0.06-0.03,0.11-0.04,0.17c-0.01,0.03-0.01,0.05-0.02,0.08c-0.01,0.06-0.03,0.12-0.05,0.18c-0.02,0.06-0.04,0.12-0.06,0.18
		c-0.01,0.05-0.03,0.09-0.04,0.14c-0.01,0.03-0.02,0.06-0.03,0.08c-0.02,0.05-0.04,0.09-0.05,0.13c-0.03,0.08-0.06,0.16-0.1,0.24
		c-0.02,0.06-0.05,0.11-0.08,0.16c-0.03,0.06-0.06,0.12-0.09,0.18c-0.03,0.05-0.06,0.1-0.09,0.15c-0.02,0.03-0.04,0.06-0.05,0.09
		c-0.01,0.02-0.03,0.05-0.04,0.07c-0.03,0.05-0.06,0.09-0.09,0.13c-0.03,0.05-0.07,0.1-0.1,0.15c-0.03,0.04-0.06,0.08-0.1,0.12
		c-0.01,0.01-0.01,0.02-0.02,0.03c-0.03,0.04-0.06,0.08-0.09,0.11c-0.03,0.04-0.07,0.08-0.1,0.12c-0.04,0.04-0.08,0.09-0.11,0.12
		c-0.04,0.04-0.07,0.07-0.11,0.11c-0.04,0.04-0.08,0.08-0.12,0.11c-0.04,0.03-0.08,0.06-0.11,0.1c-0.04,0.03-0.08,0.07-0.12,0.1
		c-0.04,0.03-0.08,0.06-0.11,0.08c-0.02,0.01-0.04,0.03-0.06,0.04c-0.02,0.02-0.04,0.03-0.07,0.05c-0.04,0.03-0.08,0.05-0.12,0.08
		c-0.04,0.03-0.08,0.05-0.13,0.08c-0.04,0.02-0.07,0.04-0.11,0.06c-0.05,0.03-0.09,0.05-0.14,0.08c-0.04,0.02-0.08,0.04-0.12,0.06
		c-0.04,0.02-0.08,0.04-0.13,0.06c-0.04,0.02-0.08,0.03-0.11,0.05c-0.02,0.01-0.03,0.01-0.05,0.02c-0.03,0.01-0.06,0.02-0.09,0.03
		c-0.04,0.02-0.08,0.03-0.12,0.04c-0.04,0.02-0.08,0.03-0.13,0.04c-0.04,0.01-0.08,0.02-0.12,0.04c-0.03,0.01-0.05,0.02-0.08,0.03
		c-0.01,0-0.03,0.01-0.04,0.01c-0.04,0.01-0.07,0.02-0.11,0.03c-0.04,0.01-0.09,0.02-0.13,0.03c-0.04,0.01-0.07,0.02-0.11,0.02
		c-0.04,0.01-0.08,0.02-0.12,0.03c-0.03,0.01-0.06,0.01-0.09,0.02c-0.04,0.01-0.08,0.01-0.13,0.02c-0.03,0.01-0.06,0.01-0.09,0.01
		c-0.04,0.01-0.08,0.01-0.12,0.02c-0.03,0-0.07,0.01-0.1,0.01c-0.02,0-0.05,0.01-0.07,0.01c-0.01,0-0.02,0-0.03,0
		c-0.03,0-0.06,0.01-0.08,0.01c-0.02,0-0.04,0-0.06,0.01c-0.01,0-0.02,0-0.04,0c-0.03,0-0.05,0-0.08,0.01c-0.03,0-0.07,0-0.1,0.01
		c-0.02,0-0.05,0-0.07,0c-0.03,0-0.05,0-0.07,0c-0.02,0-0.05,0-0.07,0c-0.01,0-0.01,0-0.02,0c-0.02,0-0.03,0-0.05,0
		c-0.02,0-0.03,0-0.05,0c-0.02,0-0.04,0-0.07,0c-0.01,0-0.03,0-0.04,0h-0.06h-3.22c-0.19,0-0.27-0.04-0.27-0.19v-6.14v-1.4v-1.45
		v-1.45v-1.39c0-0.03,0.01-0.06,0.01-0.09c0-0.01,0-0.02,0.01-0.03c0-0.02,0.01-0.03,0.01-0.05c0-0.01,0.01-0.03,0.01-0.04
		c0-0.01,0.01-0.03,0.01-0.04c0.01-0.02,0.01-0.03,0.02-0.05c0.01-0.01,0.01-0.02,0.02-0.03c0.01-0.02,0.02-0.03,0.03-0.05
		c0.01-0.01,0.01-0.02,0.02-0.02c0.01-0.02,0.03-0.03,0.04-0.05c0.01-0.01,0.01-0.01,0.02-0.02c0.02-0.02,0.04-0.04,0.06-0.06
		c0,0,0.01,0,0.01-0.01c0.19-0.15,0.49-0.26,0.98-0.33c0,0,0,0,0,0c0.07-0.01,0.14-0.02,0.22-0.02c0,0,0.01,0,0.01,0
		c0.08-0.01,0.16-0.01,0.24-0.02h0.01c0.08,0,0.16-0.01,0.24-0.01c0.09,0,0.18,0,0.28,0c0.29,0,0.57,0.01,0.84,0.03
		c-0.07,0.48-0.19,0.93-0.37,1.34c-0.31,0.7-0.77,1.28-1.37,1.72v1.73c1.63-0.58,3.01-1.53,3.93-2.83c0.26-0.37,0.48-0.76,0.66-1.19
		c0.28-0.65,0.46-1.37,0.53-2.16c0.02-0.21,0.03-0.43,0.03-0.65c0-0.25-0.02-0.48-0.03-0.71c-0.02-0.28-0.06-0.54-0.1-0.79
		c0-0.01,0-0.02,0-0.03c-0.04-0.24-0.1-0.47-0.17-0.68c0-0.02-0.01-0.03-0.01-0.05c-0.07-0.21-0.14-0.41-0.22-0.6
		c-0.01-0.02-0.02-0.04-0.02-0.06c-0.09-0.19-0.18-0.37-0.28-0.54c-0.01-0.02-0.02-0.04-0.03-0.06c-0.1-0.17-0.22-0.33-0.33-0.49
		c-0.01-0.02-0.03-0.04-0.04-0.05c-0.12-0.15-0.25-0.3-0.39-0.44c-0.01-0.02-0.03-0.03-0.04-0.04c-0.14-0.14-0.29-0.28-0.44-0.41
		c-0.01-0.01-0.03-0.02-0.04-0.04c-0.16-0.13-0.32-0.26-0.49-0.39c-0.01-0.01-0.02-0.01-0.03-0.02c-1.25-0.91-2.82-1.64-4.53-2.57
		c-0.04-0.02-0.09-0.05-0.13-0.07c-0.26-0.14-0.53-0.29-0.8-0.45c-3.57-2.05-3.8-3.61-3.8-5.84c0-2.53,1.97-3.95,4.43-3.95
		c2.9,0,3.72,1.3,3.72,1.3c0.34,0.45,0.89,1.97,0.93,3.28c0,0.11,0.04,0.15,0.15,0.15c0,0,0.01,0,0.03,0c0,0,0,0,0.01,0
		c0.05,0,0.15,0,0.28,0.01c0,0,0.01,0,0.01,0c0.13,0,0.28,0.01,0.43,0.01h0.03H42c0.01,0,0.03,0,0.04,0c0.11,0,0.22,0,0.31-0.01
		c0.01,0,0.03,0,0.04,0c0.06,0,0.12-0.01,0.16-0.01c0.07,0,0.15-0.04,0.15-0.15l0.22-4.17c0.04-0.33-0.11-0.48-0.11-0.48l-0.67-0.71
		l-1.71-0.26c0.04,0-1.67-0.3-3.5-0.3c-4.69,0-8.3,2.64-8.3,7.48c0,2.79,2.2,5.36,6.48,7.67c0.22,0.12,0.43,0.23,0.63,0.35
		c0.05,0.03,0.1,0.06,0.15,0.09c0.2,0.11,0.39,0.23,0.57,0.34c0.01,0.01,0.03,0.02,0.04,0.03c0.17,0.1,0.32,0.21,0.48,0.31
		c0.04,0.03,0.09,0.06,0.13,0.09c0.16,0.11,0.31,0.21,0.45,0.32c0.02,0.02,0.05,0.04,0.07,0.05c0.12,0.09,0.23,0.18,0.34,0.26
		c0.04,0.03,0.08,0.06,0.12,0.1c0.12,0.1,0.24,0.19,0.34,0.29c0.03,0.03,0.06,0.05,0.09,0.08c0.08,0.07,0.16,0.15,0.24,0.22
		c0.03,0.03,0.07,0.07,0.11,0.1c0.09,0.09,0.18,0.18,0.26,0.26c0.03,0.03,0.05,0.06,0.08,0.09c0.06,0.06,0.11,0.12,0.16,0.19
		c0.03,0.03,0.06,0.07,0.09,0.1c0.07,0.08,0.13,0.16,0.18,0.24c0.02,0.03,0.04,0.06,0.07,0.09c0.03,0.04,0.06,0.09,0.09,0.13
		c0.08,0.11,0.15,0.22,0.21,0.33c0,0.01,0.01,0.01,0.01,0.02c0.06,0.11,0.12,0.22,0.17,0.33c0.01,0.02,0.02,0.04,0.03,0.07
		c0.03,0.08,0.07,0.16,0.09,0.23c0.01,0.02,0.02,0.05,0.03,0.08c0.03,0.09,0.06,0.18,0.08,0.26c-1.05,0.01-2.41-0.02-3.14,0h-2.03
		c-1.8,0-2.4-0.02-3.86-0.06c0,0.73,0,1.53,0.38,1.53h0.93c0.65,0,1.08,0.34,1.08,1.03V37v1.41c-0.14-0.03-0.27-0.07-0.4-0.11
		c-0.03-0.01-0.05-0.02-0.07-0.02c-0.1-0.03-0.2-0.06-0.3-0.1c-0.02-0.01-0.05-0.02-0.07-0.03c-0.09-0.03-0.18-0.07-0.27-0.11
		c-0.02-0.01-0.05-0.02-0.07-0.03c-0.08-0.03-0.15-0.07-0.22-0.1c-0.13-0.06-0.25-0.13-0.36-0.2c-0.03-0.02-0.06-0.03-0.08-0.05
		c-0.1-0.06-0.19-0.12-0.27-0.18c-0.02-0.01-0.03-0.02-0.05-0.03c-0.09-0.07-0.18-0.14-0.26-0.21c-0.02-0.01-0.03-0.03-0.04-0.04
		c-0.07-0.06-0.14-0.13-0.19-0.18c0,0-0.01-0.01-0.01-0.01c-0.06-0.06-0.11-0.12-0.16-0.18c-0.01-0.01-0.01-0.02-0.02-0.03
		c-0.08-0.1-0.14-0.18-0.17-0.23c0,0-0.01-0.01-0.01-0.01c-0.01-0.01-0.02-0.03-0.02-0.03c-0.07-0.11-0.12-0.22-0.18-0.32
		c-0.03-0.06-0.06-0.12-0.09-0.18c0,0,0,0,0-0.01c-0.35-0.71-0.47-1.24-0.7-2.02c-0.01-0.02-0.01-0.03-0.02-0.05
		c-0.04-0.14-0.08-0.28-0.13-0.43c-0.01-0.04-0.03-0.06-0.05-0.08c-0.01-0.01-0.01-0.01-0.02-0.01c-0.02-0.02-0.05-0.03-0.08-0.03
		c-0.02,0-0.05,0-0.08,0.01l-0.74,0.21L28,33.81c-0.11,0.04-0.15,0.04-0.15,0.22c0,0.34,0.63,4.43,0.67,4.58
		c0,0.15,0.11,0.3,0.11,0.3c0.32,0.12,0.63,0.23,0.94,0.33c0.08,0.03,0.16,0.05,0.24,0.08c0.26,0.08,0.5,0.16,0.75,0.23
		c0.04,0.01,0.09,0.03,0.13,0.04c0.29,0.08,0.57,0.15,0.84,0.21c0.04,0.01,0.08,0.02,0.12,0.03c0.24,0.05,0.47,0.1,0.69,0.13
		c0.03,0.01,0.06,0.01,0.09,0.02c0.02,0,0.04,0,0.07,0.01c0.17,0.03,0.34,0.05,0.5,0.07c0.05,0.01,0.11,0.01,0.16,0.02
		c0.21,0.02,0.43,0.04,0.63,0.05v1.37v12.18c0,1.76-0.11,3.64-0.11,3.64c0,0.57-0.84,1.03-1.42,1.03h-1.84
		c-0.38,0-0.38,0.8-0.38,1.53c1.45-0.04,3.56-0.12,5.36-0.12c1.84,0,4.29,0.04,5.71,0.12c0-0.69,0-1.53-0.38-1.53h-1.8
		c-0.57,0-1.42-0.46-1.42-1.03c0,0-0.15-1.95-0.15-3.64v-3.98C37.34,49.33,37.65,49.33,37.65,49.33z"/>
	<path class="st2" d="M70.74,31.28L41.59,2.13c-2.83-2.83-7.47-2.83-10.3,0L2.13,31.28c-2.83,2.83-2.83,7.47,0,10.3l29.16,29.15
		c2.83,2.83,7.47,2.83,10.3,0l29.15-29.15C73.57,38.75,73.57,34.11,70.74,31.28 M46.88,47.61c-2.03,1.38-4.21,1.72-5.59,1.72h-3.64
		c0,0-0.31,0-0.31,0.34v3.98c0,1.69,0.15,3.64,0.15,3.64c0,0.57,0.84,1.03,1.42,1.03h1.8c0.38,0,0.38,0.84,0.38,1.53
		c-1.42-0.08-3.87-0.12-5.71-0.12c-1.8,0-3.91,0.08-5.36,0.12c0-0.73,0-1.53,0.38-1.53h1.84c0.57,0,1.42-0.46,1.42-1.03
		c0,0,0.11-1.88,0.11-3.64V41.48v-1.37c-0.21-0.01-0.42-0.03-0.63-0.05c-0.05-0.01-0.11-0.01-0.16-0.02
		c-0.17-0.02-0.33-0.04-0.5-0.07c-0.02,0-0.04-0.01-0.07-0.01c-0.03,0-0.06-0.01-0.09-0.02c-0.23-0.04-0.46-0.08-0.69-0.13
		c-0.04-0.01-0.08-0.02-0.12-0.03c-0.27-0.06-0.55-0.13-0.84-0.21c-0.04-0.01-0.09-0.03-0.13-0.04c-0.24-0.07-0.49-0.15-0.75-0.23
		c-0.08-0.03-0.16-0.05-0.24-0.08c-0.3-0.1-0.61-0.21-0.94-0.33c0,0-0.11-0.15-0.11-0.3c-0.04-0.15-0.67-4.24-0.67-4.58
		c0-0.19,0.04-0.19,0.15-0.22l0.67-0.19l0.74-0.21c0.03-0.01,0.05-0.01,0.08-0.01c0.03,0,0.06,0.01,0.08,0.03
		c0,0,0.01,0.01,0.02,0.01c0.02,0.02,0.04,0.05,0.05,0.08c0.05,0.16,0.09,0.3,0.13,0.43c0.01,0.02,0.01,0.03,0.02,0.05
		c0.23,0.78,0.35,1.31,0.7,2.02c0,0,0,0,0,0.01c0.03,0.06,0.06,0.12,0.09,0.18c0.05,0.1,0.11,0.21,0.18,0.32
		c0,0,0.01,0.01,0.02,0.03c0,0,0.01,0.01,0.01,0.01c0.03,0.04,0.08,0.12,0.17,0.23c0.01,0.01,0.01,0.02,0.02,0.03
		c0.04,0.05,0.1,0.11,0.16,0.18c0,0,0.01,0.01,0.01,0.01c0.06,0.06,0.12,0.12,0.19,0.18c0.01,0.01,0.03,0.03,0.04,0.04
		c0.08,0.07,0.16,0.14,0.26,0.21c0.01,0.01,0.03,0.02,0.05,0.03c0.08,0.06,0.17,0.12,0.27,0.18c0.03,0.02,0.05,0.03,0.08,0.05
		c0.11,0.07,0.23,0.13,0.36,0.2c0.07,0.03,0.14,0.07,0.22,0.1c0.02,0.01,0.05,0.02,0.07,0.03c0.09,0.04,0.18,0.07,0.27,0.11
		c0.02,0.01,0.04,0.02,0.07,0.03c0.09,0.03,0.2,0.07,0.3,0.1c0.03,0.01,0.05,0.02,0.07,0.02c0.13,0.04,0.26,0.07,0.4,0.11V37v-1.3
		c0-0.69-0.43-1.03-1.08-1.03h-0.93c-0.38,0-0.38-0.8-0.38-1.53c1.45,0.04,2.06,0.06,3.86,0.06h2.03c0.73-0.02,2.09,0.01,3.14,0
		c-0.02-0.08-0.05-0.17-0.08-0.26c-0.01-0.03-0.02-0.05-0.03-0.08c-0.03-0.08-0.06-0.15-0.09-0.23c-0.01-0.02-0.02-0.04-0.03-0.07
		c-0.05-0.11-0.1-0.22-0.17-0.33c0-0.01-0.01-0.01-0.01-0.02c-0.06-0.11-0.13-0.22-0.21-0.33c-0.03-0.04-0.06-0.08-0.09-0.13
		c-0.02-0.03-0.04-0.06-0.07-0.09c-0.06-0.08-0.12-0.16-0.18-0.24c-0.03-0.03-0.06-0.07-0.09-0.1c-0.05-0.06-0.11-0.12-0.16-0.19
		c-0.03-0.03-0.06-0.06-0.08-0.09c-0.08-0.09-0.17-0.17-0.26-0.26c-0.03-0.03-0.07-0.07-0.11-0.1c-0.08-0.07-0.16-0.15-0.24-0.22
		c-0.03-0.03-0.06-0.05-0.09-0.08c-0.11-0.09-0.22-0.19-0.34-0.29c-0.04-0.03-0.08-0.06-0.12-0.1c-0.11-0.09-0.22-0.18-0.34-0.26
		c-0.03-0.02-0.05-0.04-0.07-0.06c-0.14-0.1-0.29-0.21-0.45-0.32c-0.04-0.03-0.09-0.06-0.13-0.09c-0.15-0.1-0.31-0.21-0.48-0.31
		c-0.01-0.01-0.03-0.02-0.04-0.03c-0.18-0.11-0.37-0.22-0.57-0.34c-0.05-0.03-0.1-0.06-0.15-0.09c-0.2-0.11-0.41-0.23-0.63-0.35
		c-4.28-2.31-6.48-4.88-6.48-7.67c0-4.84,3.61-7.48,8.3-7.48c1.82,0,3.54,0.3,3.5,0.3l1.71,0.26l0.67,0.71c0,0,0.15,0.15,0.11,0.48
		l-0.22,4.17c0,0.11-0.08,0.15-0.15,0.15c-0.05,0-0.1,0.01-0.16,0.01c-0.01,0-0.03,0-0.04,0c-0.1,0-0.2,0-0.31,0.01
		c-0.01,0-0.03,0-0.04,0h-0.07H41.9c-0.15,0-0.3,0-0.43-0.01c-0.01,0-0.01,0-0.01,0c-0.13,0-0.22-0.01-0.28-0.01c0,0-0.01,0-0.01,0
		c-0.02,0-0.03,0-0.03,0c-0.11,0-0.15-0.04-0.15-0.15c-0.04-1.3-0.6-2.83-0.93-3.28c0,0-0.82-1.3-3.72-1.3
		c-2.46,0-4.43,1.41-4.43,3.95c0,2.23,0.22,3.8,3.8,5.84c0.27,0.16,0.54,0.31,0.8,0.45c0.04,0.02,0.09,0.05,0.13,0.07
		c1.71,0.93,3.29,1.66,4.53,2.57c0.01,0.01,0.02,0.01,0.03,0.02c0.17,0.13,0.34,0.26,0.49,0.39c0.01,0.01,0.03,0.02,0.04,0.04
		c0.15,0.13,0.3,0.27,0.44,0.41c0.01,0.01,0.03,0.03,0.04,0.04c0.14,0.14,0.27,0.29,0.39,0.44c0.01,0.02,0.03,0.03,0.04,0.05
		c0.12,0.16,0.23,0.32,0.33,0.49c0.01,0.02,0.02,0.04,0.03,0.06c0.1,0.17,0.2,0.35,0.28,0.54c0.01,0.02,0.02,0.04,0.02,0.06
		c0.08,0.19,0.16,0.39,0.22,0.6c0.01,0.02,0.01,0.03,0.01,0.05c0.07,0.22,0.12,0.44,0.17,0.68c0,0.01,0,0.02,0,0.03
		c0.05,0.25,0.08,0.52,0.1,0.79c0.02,0.23,0.03,0.46,0.03,0.71c0,0.22-0.01,0.44-0.03,0.65c-0.07,0.79-0.25,1.51-0.53,2.16
		c-0.18,0.42-0.41,0.82-0.66,1.19c-0.92,1.3-2.31,2.25-3.93,2.83v-1.73c0.6-0.44,1.06-1.02,1.37-1.72c0.18-0.41,0.31-0.86,0.37-1.34
		c-0.27-0.02-0.55-0.03-0.84-0.03c-0.1,0-0.19,0-0.28,0c-0.08,0-0.16,0.01-0.24,0.01h-0.01c-0.09,0-0.17,0.01-0.24,0.02
		c0,0-0.01,0-0.01,0c-0.08,0.01-0.15,0.02-0.22,0.02c0,0,0,0,0,0c-0.49,0.06-0.8,0.18-0.98,0.33c0,0-0.01,0-0.01,0.01
		c-0.02,0.02-0.04,0.04-0.06,0.06c-0.01,0.01-0.01,0.01-0.02,0.02c-0.02,0.02-0.03,0.03-0.04,0.05c-0.01,0.01-0.01,0.02-0.02,0.02
		c-0.01,0.02-0.02,0.03-0.03,0.05c-0.01,0.01-0.01,0.02-0.02,0.03c-0.01,0.02-0.01,0.03-0.02,0.05c-0.01,0.01-0.01,0.03-0.01,0.04
		c0,0.01-0.01,0.03-0.01,0.04c-0.01,0.02-0.01,0.03-0.01,0.05c0,0.01,0,0.02-0.01,0.03c0,0.03-0.01,0.06-0.01,0.09v1.39v1.45v1.45
		v1.4v6.14c0,0.15,0.08,0.19,0.27,0.19h3.22h0.06c0.01,0,0.03,0,0.04,0c0.02,0,0.04,0,0.07,0c0.02,0,0.03,0,0.05,0
		c0.01,0,0.03,0,0.05,0c0.01,0,0.01,0,0.02,0c0.02,0,0.05,0,0.07,0c0.02,0,0.05,0,0.07,0c0.02,0,0.05,0,0.07,0
		c0.03,0,0.06,0,0.1-0.01c0.03,0,0.05,0,0.08-0.01c0.01,0,0.02,0,0.04,0c0.02,0,0.04,0,0.06-0.01c0.03,0,0.06-0.01,0.08-0.01
		c0.01,0,0.02,0,0.03,0c0.02,0,0.05-0.01,0.07-0.01c0.03,0,0.06-0.01,0.1-0.01c0.04-0.01,0.08-0.01,0.12-0.02
		c0.03,0,0.06-0.01,0.09-0.01c0.04-0.01,0.08-0.01,0.13-0.02c0.03-0.01,0.06-0.01,0.09-0.02c0.04-0.01,0.08-0.02,0.12-0.03
		c0.04-0.01,0.07-0.01,0.11-0.02c0.04-0.01,0.09-0.02,0.13-0.03c0.03-0.01,0.07-0.02,0.11-0.03c0.01,0,0.03-0.01,0.04-0.01
		c0.03-0.01,0.05-0.02,0.08-0.03c0.04-0.01,0.08-0.02,0.12-0.04c0.04-0.01,0.08-0.03,0.13-0.04c0.04-0.01,0.08-0.03,0.12-0.04
		c0.03-0.01,0.06-0.02,0.09-0.03c0.02-0.01,0.03-0.01,0.05-0.02c0.04-0.02,0.08-0.03,0.11-0.05c0.04-0.02,0.08-0.04,0.13-0.06
		c0.04-0.02,0.08-0.04,0.12-0.06c0.04-0.02,0.09-0.05,0.14-0.08c0.04-0.02,0.07-0.04,0.11-0.06c0.04-0.03,0.08-0.05,0.13-0.08
		c0.04-0.02,0.08-0.05,0.12-0.08c0.02-0.02,0.04-0.03,0.07-0.05c0.02-0.01,0.04-0.03,0.06-0.04c0.04-0.03,0.08-0.05,0.11-0.08
		c0.04-0.03,0.08-0.07,0.12-0.1c0.04-0.03,0.08-0.06,0.11-0.1c0.04-0.04,0.08-0.07,0.12-0.11c0.04-0.03,0.07-0.07,0.11-0.11
		c0.04-0.04,0.08-0.08,0.11-0.12c0.03-0.04,0.07-0.08,0.1-0.12c0.03-0.04,0.06-0.08,0.09-0.11c0.01-0.01,0.01-0.02,0.02-0.03
		c0.03-0.04,0.06-0.08,0.1-0.12c0.04-0.05,0.07-0.1,0.1-0.15c0.03-0.04,0.06-0.09,0.09-0.13c0.02-0.02,0.03-0.05,0.04-0.07
		c0.02-0.03,0.03-0.06,0.05-0.09c0.03-0.05,0.06-0.1,0.09-0.15c0.03-0.06,0.06-0.12,0.09-0.18c0.03-0.05,0.05-0.1,0.08-0.16
		c0.03-0.08,0.07-0.16,0.1-0.24c0.02-0.04,0.04-0.09,0.05-0.13c0.01-0.03,0.02-0.05,0.03-0.08c0.01-0.05,0.03-0.09,0.04-0.14
		c0.02-0.06,0.04-0.12,0.06-0.18c0.02-0.06,0.03-0.12,0.05-0.18c0.01-0.03,0.01-0.05,0.02-0.08c0.01-0.06,0.03-0.11,0.04-0.17
		c0.01-0.04,0.01-0.07,0.02-0.11c0.01-0.05,0.02-0.1,0.03-0.15c0.01-0.07,0.03-0.13,0.04-0.2c0-0.02,0.01-0.04,0.01-0.06
		c0.01-0.08,0.02-0.15,0.03-0.23c0.01-0.07,0.02-0.13,0.03-0.2c0.01-0.09,0.01-0.19,0.02-0.29c0-0.02,0-0.05,0.01-0.07
		c0-0.06,0.01-0.12,0.01-0.18c0.01-0.18,0.01-0.37,0.01-0.57c0-2.18-0.72-3.95-2.06-5.12c0.1-0.2,0.18-0.41,0.26-0.63
		c0.02-0.05,0.03-0.1,0.05-0.15c0.06-0.17,0.12-0.33,0.16-0.5c0.12-0.44,0.21-0.9,0.26-1.37c0,0,0-0.01,0-0.01
		c4.06,1.12,5.31,4.51,5.31,7.13C50.48,42.17,50.02,45.5,46.88,47.61"/>
</g>
</svg>
